<?xml version="1.0" encoding="utf-8"?>
<!-- Generator: Adobe Illustrator 19.2.0, SVG Export Plug-In . SVG Version: 6.00 Build 0)  -->
<svg version="1.1" id="Layer_1" xmlns="http://www.w3.org/2000/svg" xmlns:xlink="http://www.w3.org/1999/xlink" x="0px" y="0px"
	 viewBox="0 0 291.5 336" style="enable-background:new 0 0 291.5 336;" xml:space="preserve">
<style type="text/css">
	.st0{fill:#FFFFFF;}
	.st1{fill:#1E1E1E;stroke:#1E1E1E;stroke-width:4;stroke-miterlimit:10;}
</style>
<polygon class="st0" points="146.9,2 289.5,84.1 289.5,250.8 145.9,333.7 2.8,251.5 2,84 "/>
<path class="st1" d="M2,84l0.8,167.5l143.1,82.2l0,0l143.6-82.9V84.1L146.9,2 M194.4,29.2c25.4,14.6,53.3,30.8,62.1,35.9
	c8.8,5,19.8,11.4,24.5,14.1l8.5,4.9v83.4v83.3l-21,12.2c-48,27.8-110.6,64-118.3,68.3l-4.3,2.4l-16.4-9.3l-16.4-9.4L113,187.2
	c0-70.2-0.2-127.7-0.5-127.7c-0.3,0-5.3,2.7-11,6.1L91,71.7v115c0,91.6-0.3,114.9-1.2,114.5c-0.7-0.3-8.3-4.5-16.8-9.5l-15.5-9
	L57,187.1l-0.5-95.6l-10.2,6l-10.3,6v25.8c0,14.1-0.1,51.5-0.1,82.9c0.1,31.5-0.3,57.3-0.7,57.3s-7.7-4-16.2-9
	c-8.5-4.9-15.8-9-16.2-9c-0.5,0-0.8-37.7-0.8-83.8V84l4.8-2.6C9.4,80,26.4,70.3,44.5,59.8C132.2,9.1,145.6,1.5,146.9,2
	C147.7,2.3,169,14.5,194.4,29.2z"/>
<path class="st1" d="M150.3,168.6c0,78,0.2,141.9,0.4,141.9s6.9-3.8,14.5-8.3l14.1-8.4V182.4c0-67.3,0.4-111.5,0.8-111.5
	c0.4,0,4.9,2.4,10,5.4l9.1,5.4l0.4,99.9l0.4,99.9l10.8-6.4l10.7-6.4v-86.7c0-47.6,0.2-86.7,0.4-86.7c0.2,0,4.8,2.6,10.1,5.9l9.8,6
	v74.5c0,41,0.2,74.6,0.5,74.6c0.7,0,25.3-14.6,27-16.1c1.5-1.3,1.6-6,1.6-71.6c0-65.5-0.1-70.3-1.6-71.6
	c-1.6-1.4-117.9-70.3-118.7-70.3C150.5,26.7,150.3,90.5,150.3,168.6z"/>
</svg>
