<?xml version="1.0" encoding="utf-8"?>
<!-- Generator: Adobe Illustrator 19.2.0, SVG Export Plug-In . SVG Version: 6.00 Build 0)  -->
<svg version="1.1" id="Layer_1" xmlns="http://www.w3.org/2000/svg" xmlns:xlink="http://www.w3.org/1999/xlink" x="0px" y="0px"
	 viewBox="0 0 190.5 10.5" style="enable-background:new 0 0 190.5 10.5;" xml:space="preserve">
<style type="text/css">
	.st0{fill:#9AA0A5;}
</style>
<g>
	<path class="st0" d="M0,10.5V0h3v1.5h1.5V3H6V1.5h1.5V0h3v10.5h-3v-6H6v3H4.5v-3H3v6H0z"/>
	<path class="st0" d="M12,10.5V3h1.5V1.5H15V0h4.5v1.5H21V3h1.5v7.5h-3v-3H15v3H12z M15,6h4.5V3H18V1.5h-1.5V3H15V6z"/>
	<path class="st0" d="M27,10.5V9h-1.5V7.5H24V3h1.5V1.5H27V0h6v1.5h1.5V3h-3V1.5h-3V3H27v4.5h1.5V9h3V7.5h3V9H33v1.5H27z"/>
	<path class="st0" d="M36,10.5V0h10.5v1.5H39v3h6V6h-6v3h7.5v1.5H36z"/>
	<path class="st0" d="M48,10.5V0h7.5v1.5H57V3h1.5v4.5H57V9h-1.5v1.5H48z M51,9h3V7.5h1.5V3H54V1.5h-3V9z"/>
	<path class="st0" d="M61.5,10.5V9H60V1.5h1.5V0H69v1.5h1.5V9H69v1.5H61.5z M63,9h4.5V1.5H63V9z"/>
	<path class="st0" d="M72,10.5V0h3v1.5h1.5V3H78V1.5h1.5V0h3v10.5h-3v-6H78v3h-1.5v-3H75v6H72z"/>
	<path class="st0" d="M84,10.5V3h1.5V1.5H87V0h4.5v1.5H93V3h1.5v7.5h-3v-3H87v3H84z M87,6h4.5V3H90V1.5h-1.5V3H87V6z"/>
	<path class="st0" d="M97.5,10.5V9H96V0h3v9h4.5V0h3v9H105v1.5H97.5z"/>
	<path class="st0" d="M108,10.5V0h9v1.5h1.5V6h-3v1.5h1.5V9h1.5v1.5H114V9h-1.5V7.5H111v3H108z M111,6h3V4.5h1.5v-3H111V6z"/>
	<path class="st0" d="M121.5,10.5V9h3V1.5h-3V0h9v1.5h-3V9h3v1.5H121.5z"/>
	<path class="st0" d="M132,10.5v-3h1.5V6h1.5V4.5h1.5V3h1.5V1.5h-6V0h10.5v3H141v1.5h-1.5V6H138v1.5h-1.5V9h6v1.5H132z"/>
	<path class="st0" d="M147,10.5v-3h3v3H147z"/>
	<path class="st0" d="M159,10.5V9h-1.5V7.5H156V3h1.5V1.5h1.5V0h6v1.5h1.5V3h-3V1.5h-3V3H159v4.5h1.5V9h3V7.5h3V9H165v1.5H159z"/>
	<path class="st0" d="M169.5,10.5V9H168V1.5h1.5V0h7.5v1.5h1.5V9H177v1.5H169.5z M171,9h4.5V1.5H171V9z"/>
	<path class="st0" d="M180,10.5V0h3v1.5h1.5V3h1.5V1.5h1.5V0h3v10.5h-3v-6H186v3h-1.5v-3H183v6H180z"/>
</g>
</svg>
