<?xml version="1.0" encoding="utf-8"?>
<!-- Generator: Adobe Illustrator 19.2.0, SVG Export Plug-In . SVG Version: 6.00 Build 0)  -->
<svg version="1.1" id="Layer_1" xmlns="http://www.w3.org/2000/svg" xmlns:xlink="http://www.w3.org/1999/xlink" x="0px" y="0px"
	 viewBox="0 0 187 36" style="enable-background:new 0 0 187 36;" xml:space="preserve">
<style type="text/css">
	.st0{opacity:0.9;enable-background:new    ;}
</style>
<g>
	<path d="M51.1,17.3L51.1,17.3c2.3,0.5,4.2,2.1,4.2,5.3c0,4.2-2.9,6.3-7.3,6.3h-9.8V7.3h9.2c4.4,0,7,2,7,5.4
		C54.5,15.4,52.9,16.7,51.1,17.3z M47.3,16.3c2.6,0,3.5-1,3.5-2.9c0-1.9-1.2-3-3.3-3h-5.7v5.9H47.3z M41.8,25.9h5.9
		c3.1,0,4-1.4,4-3.5c0-2.2-1.4-3.4-3.6-3.4h-6.3V25.9z M66.3,13.2v3h-0.1c-3-0.5-5.5,1.5-5.5,4.8v7.9h-3.2V13.5h3.2v2.9h0.1
		c0.8-1.9,2.1-3.3,4.1-3.3C65.4,13.1,65.8,13.2,66.3,13.2z M74.3,15.6c-2.5,0-3.5,0.8-3.6,2.8h-3.1c0.1-3,2.1-5.3,6.7-5.3
		c3.4,0,5.9,1.3,5.9,5.4v7.3c0,1.1,0.2,1.7,1.5,1.5v1.5c-0.7,0.3-1.2,0.3-1.8,0.3c-1.7,0-2.5-0.6-2.8-2.1H77c-1,1.4-2.7,2.3-5.1,2.3
		c-3.1,0-5.1-1.8-5.1-4.4c0-3.4,2.5-4.4,6.4-5.2c2.4-0.5,3.8-0.8,3.8-2.2C77,16.4,76.4,15.6,74.3,15.6z M77,23.1v-2.3
		c-0.5,0.4-1.7,0.7-3.2,1c-2.6,0.6-3.8,1.3-3.8,2.9c0,1.4,0.8,2.2,2.6,2.2C75.2,26.8,77,25.5,77,23.1z M83.5,9.2
		c0-1.1,0.9-1.7,1.8-1.7c0.9,0,1.8,0.6,1.8,1.7c0,1.1-0.9,1.7-1.8,1.7C84.4,10.9,83.5,10.3,83.5,9.2z M86.9,13.5v15.4h-3.2V13.5
		L86.9,13.5z M103.5,18.3v10.7h-3.2v-9.7c0-2.1-0.9-3.4-3-3.4c-2.4,0-4,1.5-4,3.8v9.4h-3.2V13.5h3.2v2h0.1c0.8-1.2,2.4-2.4,5.1-2.4
		C101.2,13.1,103.5,14.7,103.5,18.3z M111.9,7.3v18.5h10.7v3.1h-14.3V7.3H111.9z M131.2,29.4c-4.8,0-7.7-3.3-7.7-8.1
		c0-4.8,2.9-8.1,7.7-8.1c4.8,0,7.7,3.3,7.7,8.1C139,26,136.1,29.4,131.2,29.4z M131.2,26.8c3,0,4.6-2.4,4.6-5.5
		c0-3.2-1.6-5.5-4.6-5.5s-4.6,2.3-4.6,5.5C126.7,24.4,128.2,26.8,131.2,26.8z M155,27.8c0,4.4-2.7,6.4-7,6.4c-4.4,0-6.9-2.3-7.2-4.9
		h3.2c0.3,1.4,1.4,2.4,3.9,2.4c2.6,0,4-1.2,4-4v-1.9h-0.1c-0.8,1.1-2.2,2.3-4.7,2.3c-3.9,0-6.7-2.7-6.7-7.5c0-4.9,2.9-7.5,6.7-7.5
		c2.4,0,3.9,1.1,4.7,2.2h0.1v-1.8h3.2V27.8z M151.8,20.6c0-3.3-1.5-4.9-4.1-4.9c-2.8,0-4.2,2.1-4.2,4.9c0,2.8,1.4,4.9,4.2,4.9
		C150.3,25.5,151.8,23.9,151.8,20.6z M158,9.2c0-1.1,0.9-1.7,1.8-1.7c0.9,0,1.8,0.6,1.8,1.7c0,1.1-0.9,1.7-1.8,1.7
		C158.9,10.9,158,10.3,158,9.2z M161.4,13.5v15.4h-3.2V13.5L161.4,13.5z M171.4,15.7c-3.1,0-4.4,2.7-4.4,5.5s1.3,5.5,4.4,5.5
		c2.7,0,3.7-1.9,3.8-3.6h3.2c-0.2,3.6-3,6.2-7,6.2c-4.6,0-7.6-3.3-7.6-8.1c0-4.8,3-8.1,7.6-8.1c4,0,6.6,2.6,7,6.1h-3.2
		C175.1,17.6,174.1,15.7,171.4,15.7L171.4,15.7z M181.1,12.4l-0.5,1.5h-1l2.3-6.2h1.1l2.3,6.2h-1l-0.5-1.5H181.1z M183.3,11.5
		l-1-2.9h0l-1,2.9H183.3z M187,7.6v6.2h-1V7.6H187z"/>
</g>
<path class="st0" d="M23.9,18c-0.6-1.3-1.5-2.5-2.5-3.5c-2.3-2.3-5.4-3.7-8.9-3.7c-5,0-9.3,2.9-11.4,7.1l0,0C0.4,19.6,0,21.5,0,23.4
	V36h12.6c3.5,0,6.6-1.4,8.9-3.7c2.3-2.3,3.7-5.4,3.7-8.9C25.2,21.5,24.7,19.6,23.9,18z"/>
<path class="st0" d="M23.9,18c0.8-1.6,1.2-3.5,1.2-5.4c0-3.5-1.4-6.6-3.7-8.9C19.2,1.4,16.1,0,12.6,0H0v12.6c0,1.9,0.4,3.8,1.2,5.4
	v0c2,4.2,6.4,7.1,11.4,7.1C17.6,25.1,21.9,22.2,23.9,18z"/>
</svg>
