<?xml version="1.0" encoding="utf-8"?>
<!-- Generator: Adobe Illustrator 19.2.0, SVG Export Plug-In . SVG Version: 6.00 Build 0)  -->
<svg version="1.1" id="Layer_1" xmlns="http://www.w3.org/2000/svg" xmlns:xlink="http://www.w3.org/1999/xlink" x="0px" y="0px"
	 viewBox="0 0 1320 266.9" style="enable-background:new 0 0 1320 266.9;" xml:space="preserve">
<g transform="translate(0.000000,291.000000) scale(0.100000,-0.100000)">
	<path d="M1278.8,2863.3c-52-100-177-227-272-280c-32-17-32-17,102-22c103-4,131-8,120-16c-29-25-100-36-256-41l-163-6v-33
		c0-96-39-195-104-262l-41-44l180,5c202,4,251,15,334,72c28,20,51,31,51,25c0-26-99-108-156-131c-56-22-72-23-366-27l-308-4v-37
		c0-84-63-208-141-275c-52-45-164-102-220-111c-24-4-38-12-36-18c3-9,143-12,538-12h534l57,28c74,36,134,96,166,165l27,57l3,501
		C1330.8,2944.3,1329.8,2958.3,1278.8,2863.3z"/>
	<path d="M1476.8,2904.3c-4-3-7-226-7-494c0-469,1-490,21-544c27-73,104-156,177-192l57-28l529-3c417-2,531,0,537,10c6,9-7,16-44,25
		c-181,45-316,186-349,362l-11,59l-301,4c-288,4-304,5-361,28c-59,23-156,102-143,115c4,4,22-2,41-14c83-51,142-63,332-69l180-5
		l-46,50c-54,57-86,134-97,231l-7,67l-180,5c-182,5-232,15-243,48c-3,11,21,13,127,10c72-2,131-3,131-2s-29,20-63,42
		c-81,52-186,163-229,241C1494.8,2911.3,1488.8,2917.3,1476.8,2904.3z"/>
	<path d="M3569.8,1646.3v-695h303c313,0,440,9,542,35c97,26,185,75,250,140c109,109,162,248,172,455c16,334-89,571-302,675
		c-142,70-255,84-677,85h-288V1646.3z M4311.8,2062.3c89-29,159-91,188-168c44-117,46-347,4-467c-24-69-93-137-169-167
		c-55-21-80-23-277-27l-218-4v424c0,234,3,428,8,432c4,5,95,6,202,3C4210.8,2084.3,4256.8,2079.3,4311.8,2062.3z"/>
	<path d="M5548.8,2017.3c-63-17-132-59-168-103l-31-38v73v72h-145h-145l2-532l3-533l143-3l142-3v304c0,323,5,363,49,426
		c12,17,43,43,67,57c39,23,62,28,152,33l107,6l3,128l3,127l-68-1C5625.8,2030.3,5573.8,2024.3,5548.8,2017.3z"/>
	<path d="M6214.8,2021.3c-118-18-331-103-342-136c-2-5,35-47,81-93l83-83l50,25c120,61,290,80,385,44c59-23,98-67,98-111v-33l-167-6
		c-413-14-615-128-616-347c-2-199,134-320,390-349c144-16,244,1,391,66c8,3,12-5,12-26v-31h140h140v360c0,391-4,431-53,523
		c-45,87-124,145-247,181C6493.8,2025.3,6299.8,2034.3,6214.8,2021.3z M6589.8,1347.3c0-65-3-78-25-104c-36-43-117-65-245-66
		c-162-2-230,32-230,115c0,87,112,125,373,128l127,1V1347.3z"/>
	<path d="M7449.8,2016.3c-187-42-321-166-374-344c-22-76-21-228,2-312c50-179,183-297,378-334c143-28,262-16,368,36l58,28l-4-73
		c-3-60-8-80-32-114c-41-59-101-86-203-90c-102-5-167,9-266,55l-78,37l-89-89c-50-49-90-93-90-96c0-4,46-30,103-59
		c221-109,509-122,704-31c71,34,151,107,182,169c49,96,51,121,51,684v528h-140h-140v-35v-34l-36,24c-21,14-60,32-88,41
		C7683.8,2030.3,7529.8,2034.3,7449.8,2016.3z M7738.8,1795.3c108-32,172-127,173-258c0-97-18-151-67-202s-117-74-220-74
		c-102,0-168,22-220,75c-122,121-89,365,60,443C7531.8,1813.3,7652.8,1821.3,7738.8,1795.3z"/>
	<path d="M8752.8,2012.3c-201-55-324-175-373-367c-12-46-20-110-20-158c1-284,143-477,400-542c101-25,302-15,393,19
		c173,67,272,177,318,354c46,182,9,389-96,526c-45,59-152,129-240,157C9032.8,2033.3,8850.8,2038.3,8752.8,2012.3z M9038.8,1765.3
		c69-20,132-82,156-153c20-60,23-187,6-247c-37-134-174-211-332-187c-127,20-193,80-225,203c-43,168,21,330,149,379
		C8856.8,1785.3,8965.8,1787.3,9038.8,1765.3z"/>
	<path d="M10009.8,2015.3c-248-53-402-252-403-519c0-192,47-320,157-422c117-110,235-148,436-140c133,5,193,20,291,74
		c103,56,198,189,230,323c18,75,15,230-5,310c-50,198-191,333-391,375C10237.8,2034.3,10095.8,2034.3,10009.8,2015.3z
		 M10315.8,1753.3c49-25,98-78,120-130c9-20,18-73,21-118c14-204-88-325-275-328c-109-1-167,18-224,75s-78,119-78,230
		c0,147,60,249,167,283C10116.8,1788.3,10261.8,1781.3,10315.8,1753.3z"/>
	<path d="M11384.8,2017.3c-63-16-118-40-155-66c-15-11-31-20-34-20s-6,20-6,45v46l-142-3l-143-3v-530v-530h140h140l5,345
		c6,388,5,385,81,440c52,37,133,54,230,47c123-8,173-46,189-143c6-32,10-202,10-376v-318h141h140l-3,388l-3,388l-38,77
		c-52,105-124,165-246,203C11625.8,2028.3,11446.8,2034.3,11384.8,2017.3z"/>
	<path d="M12524.8,2015.3c-250-49-376-244-277-427c51-95,152-146,432-217c184-47,216-60,232-95c25-55-44-102-161-112
		c-124-10-264,35-351,113l-42,38l-89-90c-48-49-89-92-89-96c0-13,169-119,229-144c92-37,190-54,310-54c231,0,386,74,453,215
		c70,148,9,296-156,374c-33,16-152,54-263,84c-217,58-253,74-253,112c0,55,91,90,215,82c94-5,176-34,242-84l46-35l86,87l86,86
		l-40,35c-57,51-187,111-277,129C12764.8,2034.3,12619.8,2034.3,12524.8,2015.3z"/>
	<path d="M1305.8,1662.3l-89-89l91-94l91-93l93,92l93,93l-90,90c-49,49-92,90-95,90S1354.8,1711.3,1305.8,1662.3z"/>
	<path d="M6.8,1505.3c-15-15-6-22,37-28c116-18,266-135,320-250c16-34,30-85,33-117l6-58l311-3c279-4,316-6,360-23
		c49-20,156-108,145-119c-3-3-30,7-60,24c-85,46-163,60-338,60h-154l45-48c53-56,86-138,95-229l6-63h116c139,0,241-14,284-38l32-17
		l-133-5l-133-5l64-42c81-53,186-164,229-242c18-34,38-59,43-58c6,3,10,181,10,508v504l-28,56c-32,67-109,142-175,172
		c-46,22-57,22-578,25C252.8,1510.3,10.8,1509.3,6.8,1505.3z"/>
	<path d="M1702.8,1492.3c-95-33-152-83-204-181l-24-45l-3-504c-2-373,0-507,9-515c8-8,13-8,16,1c2,6,21,39,41,73
		c48,78,149,181,226,228l60,37l-139,5l-138,5l37,18c51,24,149,37,287,37h116l6,70c7,88,43,170,100,228l41,42h-154
		c-176,0-254-14-339-60c-30-17-57-28-60-25c-12,13,87,97,139,117c52,21,73,23,362,26l307,4l6,31c19,99,31,133,64,185
		c67,103,171,176,289,204c28,7,51,17,49,23s-183,11-523,12C1796.8,1510.3,1750.8,1509.3,1702.8,1492.3z"/>
</g>
</svg>
