<?xml version="1.0" encoding="utf-8"?>
<!-- Generator: Adobe Illustrator 19.2.0, SVG Export Plug-In . SVG Version: 6.00 Build 0)  -->
<svg version="1.1" id="Layer_1" xmlns="http://www.w3.org/2000/svg" xmlns:xlink="http://www.w3.org/1999/xlink" x="0px" y="0px"
	 viewBox="0 0 1200 1200" style="enable-background:new 0 0 1200 1200;" xml:space="preserve">
<g transform="translate(0.000000,1200.000000) scale(0.100000,-0.100000)">
	<path d="M5988,9847C2717,8664,42,7695,44,7693c4-4,11887,2075,11893,2080c2,2,2,503,1,1114l-3,1110L5988,9847z"/>
	<path d="M120,2965V0h2415h2415v660v660H3440H1930v495v495h1090h1090v630v630H3020H1930v490v490h1206c768,0,1204,3,1202,10
		c-1,5-181,315-398,689l-395,680l-1712,1H120V2965z"/>
	<path d="M4123,5918c2-7,475-821,1051-1808l1046-1795V1158V0h905h905v1154v1153l1050,1803c578,992,1053,1807,1056,1811
		c3,5-439,9-983,9h-988l-510-970c-280-534-512-970-516-970s-235,437-514,970l-508,970H5117C4322,5930,4119,5927,4123,5918z"/>
</g>
</svg>
