<?xml version="1.0" encoding="utf-8"?>
<!-- Generator: Adobe Illustrator 19.2.0, SVG Export Plug-In . SVG Version: 6.00 Build 0)  -->
<svg version="1.1" id="Layer_1" xmlns="http://www.w3.org/2000/svg" xmlns:xlink="http://www.w3.org/1999/xlink" x="0px" y="0px"
	 viewBox="0 0 430.5 102.2" style="enable-background:new 0 0 430.5 102.2;" xml:space="preserve">
<path d="M6.7,80.1h4l6.6,17.6h-4l-1.3-3.9H5.3l-1.4,3.9H0L6.7,80.1z M6.3,90.9h4.6l-2.2-6.5H8.6L6.3,90.9z"/>
<path d="M25.6,80.1h3.9v6.8h7.1v-6.8h3.9v17.6h-3.9v-7.6h-7.1v7.6h-3.9L25.6,80.1L25.6,80.1z"/>
<path d="M46.9,83h-3.5v-2.9h3.5V83z M43.4,85h3.5v12.8h-3.5V85z"/>
<path d="M54.6,85h2.6v2.3h-2.6v6.3c0,1.2,0.3,1.5,1.5,1.5c0.4,0,0.7,0,1.1-0.1v2.7c-0.7,0.1-1.4,0.1-2.1,0.1c-2.2,0-4-0.5-4-3v-7.5
	h-2.1V85h2.1v-3.8h3.5L54.6,85z"/>
<path d="M59.2,88.9c0.2-3.3,3.1-4.3,6-4.3c2.5,0,5.6,0.6,5.6,3.6v6.6c-0.1,1,0.1,2,0.5,2.9h-3.6c-0.1-0.4-0.2-0.8-0.2-1.2
	c-1.2,1.1-2.7,1.7-4.3,1.6c-2.4,0-4.3-1.2-4.3-3.8c0-5.8,8.6-2.7,8.5-5.5c0-1.5-1-1.7-2.3-1.7c-1.4,0-2.2,0.5-2.3,1.9L59.2,88.9z
	 M67.3,91.5c-0.6,0.5-1.8,0.5-2.9,0.7s-2.1,0.6-2.1,1.9s1,1.6,2.1,1.6c2.8,0,2.8-2.1,2.8-2.9L67.3,91.5z"/>
<path d="M81.9,89.4c-0.1-1.3-1.2-2.3-2.5-2.2c0,0-0.1,0-0.1,0c-2.2,0-3,2.3-3,4.2s0.7,4,2.9,4c1.7,0,2.6-1,2.8-2.6h3.4
	c-0.5,3.4-2.8,5.2-6.1,5.2c-3.8,0-6.4-2.7-6.4-6.5c0-4,2.4-6.9,6.5-6.9c3,0,5.8,1.6,6,4.8L81.9,89.4L81.9,89.4z"/>
<path d="M87.7,80.1h3.5v6.6h0.1c0.8-1.3,2.2-2.1,3.7-2.1c3.7,0,4.7,2.1,4.7,5.3v7.9h-3.5v-7.2c0-2.1-0.6-3.1-2.2-3.1
	c-1.9,0-2.7,1.1-2.7,3.6v6.7h-3.5V80.1z"/>
<path d="M105.6,83h-3.5v-2.9h3.5V83z M102.1,85h3.5v12.8h-3.5V85z"/>
<path d="M127.4,95.7c-1.1,1.5-2.9,2.4-4.8,2.4c-5.4,0-8.7-4.1-8.7-9.2c0-5.2,3.2-9.3,8.7-9.3c3.6,0,7,2.2,7.4,6.2h-3.7
	c-0.3-1.8-1.9-3.1-3.7-3c-3.5,0-4.8,3-4.8,6c0,2.9,1.3,5.9,4.8,5.9c2.5,0,4-1.3,4.2-3.8h-3.9v-2.9h7.4v9.5h-2.5L127.4,95.7z"/>
<path d="M133,85h3.3v2.4h0c0.7-1.6,2.3-2.7,4.1-2.7c0.3,0,0.5,0,0.8,0.1V88c-0.4-0.1-0.8-0.1-1.3-0.1c-2.6,0-3.5,1.8-3.5,4.1v5.7
	H133L133,85z"/>
<path d="M148.3,84.6c4,0,6.6,2.7,6.6,6.7s-2.6,6.7-6.6,6.7s-6.6-2.7-6.6-6.7S144.3,84.6,148.3,84.6z M148.3,95.4
	c2.4,0,3.1-2,3.1-4.1c0-2-0.7-4.1-3.1-4.1s-3.1,2.1-3.1,4.1S145.9,95.4,148.3,95.4z"/>
<path d="M168.4,97.8h-3.3V96H165c-0.8,1.3-2.3,2.2-3.9,2.1c-3.7,0-4.7-2.1-4.7-5.3V85h3.5v7.2c0,2.1,0.6,3.1,2.2,3.1
	c1.9,0,2.7-1.1,2.7-3.7V85h3.5L168.4,97.8L168.4,97.8z"/>
<path d="M170.6,85h3.3v1.6h0c0.8-1.3,2.3-2.1,3.8-2c4,0,5.8,3.2,5.8,6.9c0,3.4-1.8,6.6-5.6,6.6c-1.5,0-2.9-0.7-3.8-1.9h0v6.1h-3.5
	V85z M180,91.4c0-2.1-0.8-4.1-3.1-4.1s-3,2.1-3,4.1s0.8,4,3.1,4S180,93.5,180,91.4z"/>
<path d="M202.4,86c-0.4-1.8-2-3.1-3.8-3.1c-3.5,0-4.8,3-4.8,6c0,2.9,1.3,5.9,4.8,5.9c2.4,0,3.7-1.6,4-3.9h3.7
	c-0.4,4.4-3.4,7.2-7.7,7.2c-5.4,0-8.7-4.1-8.7-9.2c0-5.2,3.2-9.3,8.7-9.3c3.8,0,7.1,2.3,7.6,6.3H202.4z"/>
<path d="M214.2,84.6c4,0,6.6,2.7,6.6,6.7s-2.6,6.7-6.6,6.7s-6.6-2.7-6.6-6.7S210.2,84.6,214.2,84.6z M214.2,95.4
	c2.4,0,3.1-2,3.1-4.1c0-2-0.7-4.1-3.1-4.1s-3.1,2.1-3.1,4.1S211.9,95.4,214.2,95.4z"/>
<path d="M221.7,85h3.3v1.7h0c0.9-1.3,2.3-2.1,3.9-2.1c1.6,0,3,0.6,3.7,2.1c0.9-1.3,2.3-2.1,3.8-2.1c2.7,0,4.7,1.3,4.7,4.6v8.6h-3.5
	v-7.2c0-1.7-0.2-3.1-2.1-3.1s-2.3,1.6-2.3,3.2v7.1h-3.5v-7.2c0-1.5,0.1-3.2-2.1-3.2c-0.7,0-2.4,0.4-2.4,2.9v7.4h-3.5V85z"/>
<path d="M243.2,85h3.3v1.6h0.1c0.8-1.3,2.3-2.1,3.8-2c4,0,5.8,3.2,5.8,6.9c0,3.4-1.8,6.6-5.6,6.6c-1.5,0-3-0.7-3.8-1.9h-0.1v6.1
	h-3.5L243.2,85z M252.7,91.4c0-2.1-0.8-4.1-3.1-4.1s-3,2.1-3,4.1s0.8,4,3.1,4S252.7,93.5,252.7,91.4z"/>
<path d="M257.7,88.9c0.2-3.3,3.1-4.3,6-4.3c2.5,0,5.6,0.6,5.6,3.6v6.6c-0.1,1,0.1,1.9,0.4,2.8h-3.6c-0.1-0.4-0.2-0.8-0.2-1.2
	c-1.2,1.1-2.7,1.7-4.3,1.6c-2.4,0-4.3-1.2-4.3-3.8c0-5.8,8.6-2.7,8.5-5.5c0-1.5-1-1.7-2.3-1.7c-1.4,0-2.2,0.5-2.3,1.9L257.7,88.9z
	 M265.8,91.5c-0.6,0.5-1.8,0.5-2.9,0.7s-2.1,0.6-2.1,1.9s1,1.6,2.1,1.6c2.8,0,2.8-2.1,2.8-2.9L265.8,91.5z"/>
<path d="M271.5,85h3.3v1.8h0.1c0.8-1.3,2.3-2.1,3.9-2.1c3.7,0,4.7,2.1,4.7,5.3v7.9H280v-7.2c0-2.1-0.6-3.1-2.2-3.1
	c-1.9,0-2.7,1.1-2.7,3.6v6.7h-3.5V85z"/>
<path d="M291.9,99.3c-0.8,2.1-2,2.9-4.4,2.9c-0.7,0-1.4-0.1-2.1-0.1v-2.9c0.7,0.1,1.4,0.1,2.1,0.1c0.8-0.1,1.4-0.8,1.4-1.6
	c0-0.3,0-0.5-0.1-0.8l-4.5-12h3.8l2.9,8.7h0l2.8-8.7h3.6L291.9,99.3z"/>
<path d="M28.2,36.6H48c-3.2,11.5-15.2,18.2-26.7,15C9.8,48.3,3.1,36.4,6.3,24.9C9.6,13.3,21.5,6.6,33,9.9
	c6.4,1.8,11.6,6.5,14.2,12.6h5.9C48.5,8.2,33.2,0.3,18.9,4.8S-3.3,24.7,1.3,39c3.6,11.3,14.1,18.9,25.9,18.9
	c8.3,0,16.1-3.9,21.2-10.5v9.3h5V31.1H28.2V36.6z"/>
<rect x="62.6" y="5.2" width="5.4" height="51.5"/>
<rect x="222.8" y="5.2" width="5.4" height="51.4"/>
<path d="M96.3,53c-8.3,0-15.1-7.2-15.1-15.5s6.8-15.4,15.1-15.4s15.1,7.1,15.1,15.4S104.6,53,96.3,53 M96.3,16.9
	c-11.4,0-20.6,9.2-20.6,20.6s9.2,20.6,20.6,20.6c11.4,0,20.6-9.2,20.6-20.6C116.8,26.2,107.6,17,96.3,16.9"/>
<path d="M143.7,53c-8.3,0-15.1-7.2-15.1-15.5s6.8-15.4,15.1-15.4s15.1,7.1,15.1,15.4S152,53,143.7,53 M143.9,16.6
	c-5.9,0-11.5,2.5-15.3,6.9V5.2h-5.4v51.5h5.4v-5.2c3.9,4.4,9.5,6.9,15.3,6.9c11.6-0.2,20.8-9.8,20.6-21.3
	C164.3,25.9,155.2,16.8,143.9,16.6"/>
<path d="M192.7,53c-8.3,0-15.1-7.2-15.1-15.5c0-8.3,6.8-15.4,15.1-15.4c8.3,0,15.1,7.1,15.1,15.4S201,53,192.7,53 M207.8,23.6
	c-7.7-8.6-21-9.4-29.6-1.7s-9.4,21-1.7,29.6s21,9.4,29.6,1.7c0.6-0.5,1.1-1.1,1.7-1.7v5.3h5.5V19h-5.5V23.6z"/>
<rect x="370.9" width="9.6" height="9.1"/>
<polygon points="247.5,5.2 238.7,5.2 238.7,48.4 238.7,56.7 267.6,56.7 267.6,48.4 247.5,48.4 "/>
<rect x="370.9" y="16.2" width="9.6" height="40.4"/>
<path d="M292,49.7c-6.4,0-11.7-5.6-11.7-12.5s5.2-12.5,11.7-12.5s11.7,5.6,11.7,12.5S298.4,49.7,292,49.7 M292,16.1
	c-11.7,0-21.1,9.4-21.1,21.1s9.4,21.1,21.1,21.1s21.1-9.4,21.1-21.1c0,0,0,0,0,0C313.1,25.5,303.6,16.1,292,16.1"/>
<path d="M420.6,42.9c-1.8,4.1-5.9,6.8-10.4,6.9c-6.4,0-11.7-5.6-11.7-12.5c0-7.5,5.2-12.5,11.7-12.5c4.3,0.1,8.2,2.5,10.1,6.3h10.1
	c-3.4-11.2-15.2-17.5-26.4-14.1c-11.2,3.4-17.5,15.2-14.1,26.4c3.4,11.2,15.2,17.5,26.4,14.1c6.9-2.1,12.3-7.6,14.2-14.6L420.6,42.9
	z"/>
<path d="M338.9,70.7c-4.3-0.1-8.4-2.2-10.9-5.6l-8.5,4.2c4.2,6.7,11.6,10.7,19.5,10.5c11.1-0.1,20.4-8.6,21.4-19.7h-9.6
	C349.8,66,344.9,70.7,338.9,70.7"/>
<path d="M339.4,49.9c-6.4,0-11.6-5.6-11.6-12.5S333,25,339.4,25S351,30.5,351,37.4C351,44.3,345.8,49.9,339.4,49.9 M351.7,20.4
	c-9.4-6.8-22.5-4.7-29.4,4.7s-4.7,22.5,4.7,29.4c9.4,6.8,22.5,4.7,29.4-4.7c2.6-3.6,4-7.8,4-12.2V16.2h-8.7V20.4z"/>
</svg>
