<?xml version="1.0" encoding="utf-8"?>
<!-- Generator: Adobe Illustrator 19.2.0, SVG Export Plug-In . SVG Version: 6.00 Build 0)  -->
<svg version="1.1" id="Layer_1" xmlns="http://www.w3.org/2000/svg" xmlns:xlink="http://www.w3.org/1999/xlink" x="0px" y="0px"
	 viewBox="0 0 459.9 137.1" style="enable-background:new 0 0 459.9 137.1;" xml:space="preserve">
<g>
	<g>
		<path d="M97.1,0H60.4H41H0v41v18.2v36.9c0,22.6,18.4,41,41,41h56.1c22.6,0,41-18.4,41-41V41C138.1,18.4,119.7,0,97.1,0z
			 M49.5,25.5c2.7-3.4,7.8-3.7,10.6-0.6c1.6,1.8,1.9,4,2.2,16.2l0.4,14.1l-7.4-6.6L48,42.1l-0.3-7C47.5,29.3,47.8,27.7,49.5,25.5z
			 M39.1,61.8c-0.3,0-0.6,6.5-0.6,14.5c0,13.2-0.2,14.7-2,16.5c-2.6,2.6-8,2.6-11.1,0.1c-2.4-1.9-2.4-2-2.7-26.7
			c-0.3-26.1,0.1-29.3,4.1-31.2c4.2-2,6.6-1.3,12.4,4c3.2,2.8,10.9,10,17.1,15.9l11.2,10.8v10.6c0,6.1-0.4,10.5-0.9,10.3
			S59.8,80.8,52.7,74C45.5,67.3,39.4,61.8,39.1,61.8z M115.3,67.5c-0.3,22-0.5,24.3-2.2,26.2c-2.5,2.7-7.9,2.8-10.6,0.1
			c-1.8-1.8-2-3.3-2-17c0-8.3-0.4-15-0.8-15c-0.4,0-2.7,1.9-5,4.3l-4.2,4.3v12.2c0,15.7-1.1,20.3-6.4,25.7c-3.3,3.4-5.3,4.5-9.7,5.5
			c-10.5,2.3-19.5-1.6-24.2-10.4c-1.8-3.4-2.2-6.2-2.5-16.6l-0.4-12.5l7.6,7.5c6.5,6.3,7.6,8,7.6,10.8c0,5.6,1.5,7.2,6.5,7.2
			c2.4,0,4.7-0.6,5.2-1.3c0.4-0.6,1-17,1.3-36.3c0.5-32.8,0.6-35.3,2.4-37.3c2.8-3.1,7.9-2.8,10.5,0.5c1.8,2.3,2.1,4.1,2.1,13.1V49
			l6.3-5.7c7.9-7.3,9.7-8.1,13.6-6.6C115.2,38.8,115.6,41.2,115.3,67.5z"/>
	</g>
</g>
<g>
	<path d="M159.5,66.5c-2.7,0-4-1.3-4-3.8V30.4c0-1.4,0.4-2.4,1.2-3c0.8-0.5,2-0.8,3.5-0.8c2.1,0,3.7,0.9,4.8,2.6l10,16.2l9.9-16.2
		c0.7-1.1,1.4-1.8,2.2-2.1c0.8-0.3,1.9-0.5,3.3-0.5c2.7,0,4,1.3,4,3.8v32.4c0,2.5-1.3,3.8-4,3.8s-4-1.3-4-3.8V39.4l-7.6,12.9
		c-1,1.7-2.3,2.6-3.9,2.6c-1.6,0-2.9-0.9-3.9-2.6l-7.6-12.9v23.3C163.5,65.3,162.2,66.5,159.5,66.5z"/>
	<path d="M206.7,66.5c-2.7,0-4-1.3-4-3.8V30.4c0-2.5,1.3-3.8,4-3.8h21.1c2.7,0,4,1.1,4,3.4s-1.3,3.4-4,3.4h-17.2v9.3H226
		c2.7,0,4,1.1,4,3.4c0,2.3-1.3,3.4-4,3.4h-15.4v10.1h17.9c2.7,0,4,1.1,4,3.4c0,2.3-1.3,3.4-4,3.4H206.7z M214,22.8
		c-1.3,0.8-2.3,0.8-3.1-0.1c-0.7-0.8-0.6-1.7,0.5-2.8l9.2-8.8c1.2-1.1,2.3-1.1,3.4,0.1l1.2,1.4c1.1,1.2,1,2.3-0.4,3.2L214,22.8z"/>
	<path d="M242.7,66.5c-2.7,0-4-1.3-4-3.8V30.4c0-2.5,1.3-3.8,4-3.8h10.1c4.2,0,7.8,0.7,11,2.1c3.1,1.4,5.6,3.6,7.3,6.5
		c1.8,2.9,2.6,6.7,2.6,11.3c0,4.6-0.9,8.3-2.6,11.3c-1.8,2.9-4.2,5.1-7.3,6.6c-3.1,1.4-6.8,2.1-11,2.1H242.7z M246.6,59.7h5.6
		c4,0,7.2-1.1,9.6-3.2c2.4-2.1,3.6-5.4,3.6-9.9c0-4.5-1.2-7.8-3.6-9.9c-2.4-2.1-5.6-3.2-9.6-3.2h-5.6V59.7z"/>
	<path d="M283.8,66.5c-2.7,0-4-1.3-4-3.8V30.4c0-2.5,1.3-3.8,4-3.8c2.7,0,4,1.3,4,3.8v32.4C287.8,65.3,286.5,66.5,283.8,66.5z"/>
	<path d="M314.1,67.5c-3.9,0-7.3-0.9-10.4-2.6c-3.1-1.7-5.5-4.1-7.2-7.3c-1.7-3.1-2.6-6.8-2.6-11.1c0-4.3,0.9-8,2.6-11.1
		c1.7-3.1,4.1-5.6,7.2-7.3c3.1-1.7,6.5-2.6,10.4-2.6c2.9,0,5.5,0.5,8,1.4c2.4,1,4.5,2.3,6.3,4c0.9,1,1.2,1.9,0.9,2.9
		c-0.3,1-1,1.7-1.9,2.2l-0.3,0.2c-0.6,0.3-1.5,0.5-2.5,0.4c-1.1-0.1-2.1-0.5-3-1.3c-2-1.7-4.5-2.6-7.4-2.6c-2.4,0-4.5,0.6-6.3,1.7
		c-1.8,1.2-3.2,2.8-4.1,4.8c-1,2.1-1.5,4.5-1.5,7.2c0,2.7,0.5,5.1,1.5,7.2c1,2.1,2.4,3.7,4.1,4.8c1.8,1.2,3.9,1.7,6.3,1.7
		c2.9,0,5.4-0.9,7.4-2.6c0.9-0.8,1.9-1.3,2.8-1.4c1-0.1,1.9,0,2.7,0.4l0.1,0.1c0.9,0.5,1.6,1.2,2,2.2c0.4,1,0.2,2-0.7,2.9
		c-1.8,1.8-3.9,3.2-6.4,4.1C319.7,67,317,67.5,314.1,67.5z"/>
	<path d="M337.9,66.5c-1.3,0-2.2-0.4-2.7-1.1c-0.5-0.7-0.5-1.7,0-3l13.3-33.1c0.7-1.9,2.2-2.8,4.3-2.8h0.6c2.2,0,3.6,0.9,4.3,2.8
		l13.3,33.1c0.5,1.3,0.5,2.2,0,3c-0.5,0.7-1.4,1.1-2.8,1.1H367c-2.2,0-3.6-1-4.3-2.9l-1.8-5h-15.7l-1.8,5c-0.7,1.9-2.1,2.9-4.3,2.9
		H337.9z M347.7,51.8h10.6l-5.3-14.5L347.7,51.8z"/>
	<path d="M171.6,116.3c-5.5,0-9.6-1.3-12.5-3.9c-2.8-2.6-4.3-6.5-4.3-11.8V79.4c0-2.5,1.3-3.8,4-3.8c2.7,0,4,1.3,4,3.8v20.7
		c0,3.2,0.8,5.5,2.4,6.9c1.6,1.4,3.7,2.1,6.3,2.1c2.7,0,4.8-0.7,6.3-2.1c1.5-1.4,2.3-3.7,2.3-6.9V79.4c0-1.2,0.4-2.1,1.1-2.8
		c0.7-0.6,1.7-1,3-1c2.7,0,4,1.3,4,3.8v21.1c0,5.3-1.4,9.2-4.2,11.8S177.1,116.3,171.6,116.3z"/>
	<path d="M200,115.5c-2.7,0-4-1.3-4-3.8V79.4c0-2.5,1.3-3.8,4-3.8h15.8c2.7,0,5,0.4,7,1.1c2,0.8,3.5,2,4.6,3.7
		c1.1,1.7,1.6,4,1.6,6.9c0,3.6-0.8,6.3-2.5,8.1c-1.7,1.8-3.9,3-6.8,3.4l6.4,12.2c0.7,1.3,0.8,2.4,0.4,3.2s-1.3,1.3-2.7,1.3h-1.3
		c-2.2,0-3.8-0.9-4.7-2.8l-6.2-13.5h-7.6v12.5C203.9,114.3,202.6,115.5,200,115.5z M203.9,92.3h10.8c1.8,0,3.3-0.4,4.3-1.1
		c1.1-0.8,1.6-2,1.6-3.8c0-1.7-0.5-3-1.6-3.8c-1.1-0.8-2.5-1.1-4.3-1.1h-10.8V92.3z"/>
	<path d="M251.4,116.3c-5.5,0-9.6-1.3-12.5-3.9s-4.3-6.5-4.3-11.8V79.4c0-2.5,1.3-3.8,4-3.8c2.7,0,4,1.3,4,3.8v20.7
		c0,3.2,0.8,5.5,2.4,6.9s3.7,2.1,6.3,2.1c2.7,0,4.8-0.7,6.3-2.1c1.5-1.4,2.3-3.7,2.3-6.9V79.4c0-1.2,0.4-2.1,1.1-2.8
		c0.7-0.6,1.7-1,3-1c2.7,0,4,1.3,4,3.8v21.1c0,5.3-1.4,9.2-4.2,11.8S256.8,116.3,251.4,116.3z"/>
	<path d="M293.5,116.5c-3.9,0-7.3-0.9-10.3-2.6c-3-1.7-5.3-4.1-7-7.3c-1.7-3.1-2.5-6.8-2.5-11.1c0-4.3,0.8-8,2.5-11.1
		c1.7-3.1,4-5.6,7-7.3c3-1.7,6.4-2.6,10.3-2.6c2.4,0,4.7,0.3,6.8,0.9c2.1,0.6,4,1.4,5.7,2.4c1.1,0.6,1.7,1.4,1.8,2.4
		c0.1,0.9-0.3,1.9-1.1,2.8c-0.8,1-1.6,1.4-2.5,1.5c-0.9,0-1.9-0.2-3-0.9c-1.1-0.6-2.3-1-3.6-1.4c-1.3-0.3-2.7-0.5-4-0.5
		c-2.4,0-4.5,0.6-6.2,1.7c-1.7,1.2-3.1,2.8-4,4.8c-0.9,2.1-1.4,4.5-1.4,7.2c0,2.7,0.5,5.1,1.4,7.2c0.9,2.1,2.2,3.7,4,4.8
		c1.7,1.2,3.8,1.7,6.2,1.7c1.9,0,3.4-0.2,4.6-0.5c1.2-0.3,2.2-0.7,3-1.2v-7.7h-2.4c-2.7,0-4-1.1-4-3.4s1.3-3.4,4-3.4h6.5
		c2.7,0,4,1.3,4,3.8v12.7c0,1-0.2,1.9-0.6,2.6c-0.4,0.7-1,1.3-2,1.7c-1.9,0.9-4,1.5-6.2,2C298.1,116.3,295.8,116.5,293.5,116.5z"/>
	<path d="M332.5,116.3c-5.5,0-9.6-1.3-12.5-3.9s-4.3-6.5-4.3-11.8V79.4c0-2.5,1.3-3.8,4-3.8c2.7,0,4,1.3,4,3.8v20.7
		c0,3.2,0.8,5.5,2.4,6.9s3.7,2.1,6.3,2.1c2.7,0,4.8-0.7,6.3-2.1c1.5-1.4,2.3-3.7,2.3-6.9V79.4c0-1.2,0.4-2.1,1.1-2.8
		c0.7-0.6,1.7-1,3-1c2.7,0,4,1.3,4,3.8v21.1c0,5.3-1.4,9.2-4.2,11.8S338,116.3,332.5,116.3z"/>
	<path d="M357.7,115.5c-1.3,0-2.2-0.4-2.7-1.1c-0.5-0.7-0.5-1.7,0-3l13.3-33.1c0.7-1.9,2.2-2.8,4.3-2.8h0.6c2.2,0,3.6,0.9,4.3,2.8
		l13.3,33.1c0.5,1.3,0.5,2.2,0,3c-0.5,0.7-1.4,1.1-2.8,1.1h-1.3c-2.2,0-3.6-1-4.3-2.9l-1.8-5h-15.7l-1.8,5c-0.7,1.9-2.1,2.9-4.3,2.9
		H357.7z M367.5,100.8h10.6l-5.3-14.5L367.5,100.8z"/>
	<path d="M406.4,115.5c-2.7,0-4-1.3-4-3.8V98.7l-11.6-18.5c-0.9-1.5-1.1-2.6-0.5-3.4c0.6-0.8,1.9-1.1,3.7-1.1c2.1,0,3.7,0.9,4.8,2.6
		l7.6,12.4l7.6-12.4c1.1-1.7,2.7-2.6,4.8-2.6c1.9,0,3.1,0.4,3.7,1.3s0.4,1.9-0.4,3.2l-11.7,18.5v13.1
		C410.4,114.3,409,115.5,406.4,115.5z"/>
	<path d="M424.6,115.5c-1.3,0-2.2-0.4-2.7-1.1c-0.5-0.7-0.5-1.7,0-3l13.3-33.1c0.7-1.9,2.2-2.8,4.3-2.8h0.6c2.2,0,3.6,0.9,4.3,2.8
		l13.3,33.1c0.5,1.3,0.5,2.2,0,3c-0.5,0.7-1.4,1.1-2.8,1.1h-1.3c-2.2,0-3.6-1-4.3-2.9l-1.8-5h-15.7l-1.8,5c-0.7,1.9-2.1,2.9-4.3,2.9
		H424.6z M434.4,100.8h10.6l-5.3-14.5L434.4,100.8z"/>
</g>
</svg>
