<?xml version="1.0" encoding="utf-8"?>
<!-- Generator: Adobe Illustrator 19.2.0, SVG Export Plug-In . SVG Version: 6.00 Build 0)  -->
<svg version="1.1" id="Layer_1" xmlns="http://www.w3.org/2000/svg" xmlns:xlink="http://www.w3.org/1999/xlink" x="0px" y="0px"
	 viewBox="0 0 459.9 137.1" style="enable-background:new 0 0 459.9 137.1;" xml:space="preserve">
<style type="text/css">
	.st0{font-family:'ZenMaruGothic-Black';}
	.st1{font-size:57px;}
</style>
<g>
	<path d="M97.1,0H60.4H41H0v41v18.2v36.9c0,22.6,18.4,41,41,41h56.1c22.6,0,41-18.4,41-41V41C138.1,18.4,119.7,0,97.1,0z M49.5,25.5
		c2.7-3.4,7.8-3.7,10.6-0.6c1.6,1.8,1.9,4,2.2,16.2l0.4,14.1l-7.4-6.6L48,42.1l-0.3-7C47.5,29.3,47.8,27.7,49.5,25.5z M39.1,61.8
		c-0.3,0-0.6,6.5-0.6,14.5c0,13.2-0.2,14.7-2,16.5c-2.6,2.6-8,2.6-11.1,0.1c-2.4-1.9-2.4-2-2.7-26.7c-0.3-26.1,0.1-29.3,4.1-31.2
		c4.2-2,6.6-1.3,12.4,4c3.2,2.8,10.9,10,17.1,15.9l11.2,10.8v10.6c0,6.1-0.4,10.5-0.9,10.3S59.8,80.8,52.7,74
		C45.5,67.3,39.4,61.8,39.1,61.8z M115.3,67.5c-0.3,22-0.5,24.3-2.2,26.2c-2.5,2.7-7.9,2.8-10.6,0.1c-1.8-1.8-2-3.3-2-17
		c0-8.3-0.4-15-0.8-15c-0.4,0-2.7,1.9-5,4.3l-4.2,4.3v12.2c0,15.7-1.1,20.3-6.4,25.7c-3.3,3.4-5.3,4.5-9.7,5.5
		c-10.5,2.3-19.5-1.6-24.2-10.4c-1.8-3.4-2.2-6.2-2.5-16.6l-0.4-12.5l7.6,7.5c6.5,6.3,7.6,8,7.6,10.8c0,5.6,1.5,7.2,6.5,7.2
		c2.4,0,4.7-0.6,5.2-1.3c0.4-0.6,1-17,1.3-36.3c0.5-32.8,0.6-35.3,2.4-37.3c2.8-3.1,7.9-2.8,10.5,0.5c1.8,2.3,2.1,4.1,2.1,13.1V49
		l6.3-5.7c7.9-7.3,9.7-8.1,13.6-6.6C115.2,38.8,115.6,41.2,115.3,67.5z"/>
</g>
<text transform="matrix(1.0734 0 0 1 151.3796 66.5222)"><tspan x="0" y="0" class="st0 st1">MÉDICA</tspan><tspan x="0" y="49" class="st0 st1">URUGUAYA</tspan></text>
</svg>
