<?xml version="1.0" encoding="utf-8"?>
<!-- Generator: Adobe Illustrator 19.2.0, SVG Export Plug-In . SVG Version: 6.00 Build 0)  -->
<svg version="1.1" id="Layer_1" xmlns="http://www.w3.org/2000/svg" xmlns:xlink="http://www.w3.org/1999/xlink" x="0px" y="0px"
	 viewBox="0 0 798.8 199" style="enable-background:new 0 0 798.8 199;" xml:space="preserve">
<g transform="translate(0.000000,241.000000) scale(0.100000,-0.100000)">
	<path d="M0,2120v-290h285h285l2-702l3-703l398-3l397-2v705v705h275h275v290v290H960H0V2120z"/>
	<path d="M2469,2383c-6-16-74-194-151-398c-77-203-241-635-364-959s-224-593-224-598c0-4,172-7,382-6l381,3l119,350
		c66,193,156,457,201,588c44,130,84,234,88,230c4-5,95-262,202-573c108-311,198-573,202-582c7-17,35-18,391-18c237,0,384,4,384,10
		c0,5-37,105-83,222s-218,561-383,985l-299,773h-418h-417L2469,2383z"/>
	<path d="M3902,2123l3-288l282-3l283-2l2-703l3-702l397-3l398-2l2,702l3,703l273,3l272,2v290v290h-960h-960L3902,2123z"/>
	<path d="M6352,2333c-17-43-62-162-101-265c-143-378-212-560-346-913c-196-516-275-725-275-730c0-3,172-4,383-3l382,3l75,220
		c41,121,131,385,200,588c69,202,127,367,130,367s40-103,83-228s135-390,204-589l126-363h388h387l-49,128c-27,70-201,517-386,995
		l-338,867h-417h-417L6352,2333z"/>
</g>
</svg>
