<?xml version="1.0" encoding="utf-8"?>
<!-- Generator: Adobe Illustrator 19.2.0, SVG Export Plug-In . SVG Version: 6.00 Build 0)  -->
<svg version="1.1" id="Layer_1" xmlns="http://www.w3.org/2000/svg" xmlns:xlink="http://www.w3.org/1999/xlink" x="0px" y="0px"
	 viewBox="0 0 542.8 113.3" style="enable-background:new 0 0 542.8 113.3;" xml:space="preserve">
<path d="M89.3,6.3C89.3,2.8,92,0,95.5,0c3.3,0,6.1,2.8,6.1,6.3v18.4h11.6c3.5,0,6.2,2.6,6.2,6c0,3.6-2.6,6.1-6.2,6.1h-11.6v31.7
	c0,4.6,2.4,7.5,5.5,7.5c3.5,0,4.1-1,6.3-1c3,0,6,2.2,6,5.8c0,3-2.3,5.3-5.3,6c-2.4,0.5-4.7,0.7-7.1,0.7c-9.8,0-17.8-7.8-17.8-18.9
	V6.3H89.3z M134.5,41.6c0-10.3,7.7-18.1,17.8-18.1c3,0,6,0.4,9,1c2.9,0.6,4.9,3,4.9,6c0,3.3-2.4,5.8-5.9,5.8c-0.7,0-1.1,0-2-0.2
	c-1.9-0.5-4.1-1-6-1c-3,0-5.5,2.5-5.5,5.6v40.6c0,3.5-2.8,6.3-6.1,6.3c-3.5,0-6.2-2.8-6.2-6.3V41.6z M196.3,83.9L176.6,32
	c-0.2-0.7-0.5-1.6-0.5-2.3c0-3.2,2.9-6.2,6.3-6.2c2.5,0,4.8,1.6,5.6,4l14.4,40l12.3-39.7c0.8-2.5,3.2-4.3,5.7-4.3
	c3.2,0,6.3,2.7,6.3,6.3c0,0.6-0.1,1.3-0.4,1.9l-21.4,65c-3.2,10-11.6,16.6-23,16.6c-3.2,0-6.1-2.3-6.1-6c0-3.2,2.6-5.7,5.9-5.8
	c5.3-0.2,9.8-2.4,11.5-7.8L196.3,83.9L196.3,83.9z M276.1,48.1c0-7.7-4.9-13-12.8-13c-8.1,0-12.8,4.7-12.8,13v15.1
	c0,8.1,4.7,12.9,12.8,12.9s12.8-4.7,12.8-12.9C276.1,63.2,276.1,48.1,276.1,48.1z M288.4,62c0,7.4-2.4,13.8-6.9,18.5
	c-4.5,4.6-10.9,7-18.2,7c-7.3,0-13.6-2.4-18.2-7c-4.5-4.6-6.9-11.1-6.9-18.5V49c0-7.4,2.4-13.8,6.9-18.5c4.5-4.6,10.9-7,18.2-7
	c7.3,0,13.6,2.4,18.2,7c4.5,4.6,6.9,11.1,6.9,18.5V62z M348.9,6.3c0-3.5,2.7-6.3,6.2-6.3c3.3,0,6.1,2.8,6.1,6.3v74.9
	c0,3.5-2.8,6.3-6.1,6.3c-3.5,0-6.2-2.8-6.2-6.3C348.9,81.2,348.9,6.3,348.9,6.3z M411.9,60h-12.3c-10.4,0-11,5.7-11,7.8
	c0,2.2,0.6,8.3,11,8.3c4.1,0,8.5-0.6,12.3-1.6C411.9,74.5,411.9,60,411.9,60z M424.2,77c0,3.4-2.2,6.3-5.3,7.4
	c-5.9,2.1-12.7,3.2-19.4,3.2c-7.3,0-13-1.8-17.1-5.3s-6.2-8.5-6.2-14.5s2.2-10.6,6.2-14c4.1-3.5,9.8-5.3,17.1-5.3h12.3v-4.2
	c0-5.1-3.7-9.1-9.9-9.1c-5.6,0-8.7,0.7-12.9,3.3c-1,0.6-2.3,1.1-3.4,1.1c-3.2,0-5.9-2.4-5.9-5.5c0-2.2,1-4.4,3-5.6
	c6.5-3.8,12.1-4.9,20.7-4.9c13.4,0,20.7,9.8,20.7,20.6L424.2,77L424.2,77z M474.9,46.8c0-7.4-4.3-11.8-11.7-11.8
	c-4.3,0-8.3,1.6-11.6,4.4v35.1c3.8,1,7.7,1.5,11.6,1.5c7.4,0,11.7-4.2,11.7-11.8V46.8z M487.2,63.1c0,7.2-2.4,13.2-6.7,17.6
	c-4.3,4.5-10.3,6.8-17.3,6.8c-6.5,0-12.7-1.1-18.7-3.2c-3.1-1.1-5.3-4-5.3-7.4V6.3c0-3.5,2.7-6.3,6.2-6.3c3.3,0,6.1,2.8,6.1,6.3
	v20.4c3.7-1.7,8.5-3.2,12.4-3.2c7.1,0,12.3,2.1,16.6,6.6c4.3,4.4,6.6,10.7,6.6,17.7L487.2,63.1L487.2,63.1z M512.6,58.5
	c-6.5-2.4-11.5-7.5-11.5-16.6c0-10.7,8.7-18.3,20.7-18.3c8.1,0,12.3,1.2,16.3,3c2.4,1,3.9,3.2,3.9,5.7c0,3.2-2.5,5.8-5.7,5.8
	c-0.8,0-2-0.2-2.9-0.6c-3-1.5-7.9-2.4-11.8-2.4c-4.9,0-8.1,2.4-8.1,6.6c0,3.2,2.4,5.1,4.9,6l11.7,3.9c7.9,2.7,12.7,8.1,12.7,17
	c0,10.7-8.5,19.1-21.3,19.1c-7.1,0-12.8-1.3-17.2-3.4c-2.3-1.1-3.7-3.2-3.7-5.6c0-3.2,2.6-6.1,6-6.1c0.8,0,1.9,0.4,2.8,0.7
	c3.2,1.7,7.2,2.8,12.4,2.8c5.7,0,8.7-2.2,8.7-6.3c0-4.5-3.6-6-8-7.5L512.6,58.5L512.6,58.5z"/>
<path d="M43,34.8c-2.4,0-4.7,1-6.5,2.7L11.3,63.2c-1.7,1.8-2.7,4.1-2.7,6.6s1,4.8,2.7,6.6c1.7,1.8,4,2.7,6.5,2.7
	c2.4,0,4.7-1,6.5-2.7l25.2-25.7c3.6-3.6,3.6-9.5,0-13.2C47.8,35.8,45.5,34.8,43,34.8 M17.8,87.8c-4.7,0-9.2-1.9-12.6-5.3
	S0,74.6,0,69.8C0,65,1.9,60.4,5.2,57l25.3-25.6c3.4-3.4,7.8-5.3,12.6-5.3c4.7,0,9.2,1.9,12.6,5.3c6.9,7,6.9,18.5,0,25.5L30.4,82.5
	C27,85.9,22.5,87.8,17.8,87.8 M17.8,9.2c-2.4,0-4.7,1-6.5,2.7c-1.7,1.8-2.7,4.1-2.7,6.6s1,4.8,2.7,6.6l25.2,25.6
	c1.7,1.8,4,2.7,6.5,2.7c2.4,0,4.7-1,6.5-2.7c3.6-3.6,3.6-9.5,0-13.2L24.2,11.9C22.5,10.2,20.2,9.2,17.8,9.2 M43,62.2
	c-4.7,0-9.2-1.9-12.6-5.3L5.2,31.3C1.8,27.9,0,23.4,0,18.6S1.9,9.3,5.2,5.8C8.6,2.4,13,0.5,17.8,0.5c4.7,0,9.2,1.9,12.6,5.3
	l25.3,25.6c6.9,7,6.9,18.5,0,25.5C52.2,60.3,47.8,62.2,43,62.2 M329.7,56.7c0,6.1-4.9,11-10.8,11c-6,0-10.8-4.9-10.8-11
	s4.8-11,10.8-11S329.7,50.6,329.7,56.7"/>
</svg>
