<?xml version="1.0" encoding="utf-8"?>
<!-- Generator: Adobe Illustrator 19.2.0, SVG Export Plug-In . SVG Version: 6.00 Build 0)  -->
<svg version="1.1" id="Layer_1" xmlns="http://www.w3.org/2000/svg" xmlns:xlink="http://www.w3.org/1999/xlink" x="0px" y="0px"
	 viewBox="0 0 1826.7 294.1" style="enable-background:new 0 0 1826.7 294.1;" xml:space="preserve">
<g transform="translate(0.000000,533.000000) scale(0.100000,-0.100000)">
	<path d="M2190,4165V3000h210h210v80v80l63-49c125-98,235-139,397-148c181-10,350,34,492,129c172,115,282,277,341,502
		c29,112,31,373,3,491c-43,185-109,309-231,431c-66,65-100,89-176,127c-284,140-614,105-829-89l-40-36v406v406h-220h-220V4165z
		 M3181,4310c179-55,292-235,293-465c1-147-24-232-99-335c-42-58-103-101-182-130c-53-19-77-22-165-18c-88,3-111,8-158,32
		c-101,50-179,145-221,266c-18,52-22,87-22,175c0,61,5,131,11,157c27,110,107,229,188,279C2922,4330,3067,4346,3181,4310z"/>
	<path d="M0,4496c0-829,1-856,56-1008c72-198,201-342,389-433c150-72,237-89,460-89c166,0,202,3,280,23c111,29,231,84,312,144
		c127,95,239,269,286,447c22,85,22,89,22,880v795l-222,3l-222,2l-4-752c-3-683-5-759-21-813c-26-86-52-131-106-186
		c-83-83-183-120-325-120c-223,0-372,105-433,306c-13,43-16,163-19,808l-4,757H224H0V4496z"/>
	<path d="M17500,4865v-175h-90h-90v-185v-185h85h85v-357c0-474,13-576,87-727c91-182,269-264,549-254c66,3,126,8,132,12
		c7,4,10,66,9,194l-2,187l-95,5c-119,7-169,31-202,99c-23,45-23,55-26,444l-3,397h155h156v185v185h-155h-155v175v175h-220h-220V4865
		z"/>
	<path d="M4807,4719c-371-43-647-327-706-726c-30-198,2-420,84-583c136-270,398-430,731-447c239-12,442,49,609,184
		c61,50,155,158,155,179c0,9-226,187-277,217c-8,5-33-12-66-45c-101-100-214-148-350-148c-75,0-170,21-227,50
		c-101,52-192,176-206,283l-7,47h593h593l-6,153c-8,233-57,395-162,542c-121,169-293,265-529,295C4946,4731,4907,4731,4807,4719z
		 M5072,4328c110-51,191-157,200-263l3-40l-357-3c-293-2-358,0-358,11c0,28,33,122,55,158c30,47,91,106,130,127
		C4839,4367,4977,4371,5072,4328z"/>
	<path d="M6784,4720c-73-11-121-28-185-66c-61-37-136-112-165-165l-19-34l-3,118l-3,117h-214h-215v-845v-845h219h219l4,443
		c4,376,7,451,21,502c58,203,175,308,360,323l67,5v228c0,212-1,229-17,228C6843,4728,6812,4724,6784,4720z"/>
	<path d="M7555,4719c-222-33-402-165-455-336c-24-77-27-221-6-298c50-190,167-285,509-415c156-60,218-96,247-142c24-40,25-69,4-114
		c-64-134-352-112-522,41c-27,25-53,45-57,45c-7,0-255-220-255-227c0-2,14-24,30-49c65-94,236-203,380-241c49-14,103-18,215-18
		c169,1,258,19,370,78c70,37,193,154,223,213c68,134,69,343,1,475c-30,60-92,123-167,170c-80,51-140,78-297,134
		c-169,60-189,70-235,113c-35,34-40,44-40,84c0,98,94,151,225,127c78-14,127-40,191-101c35-33,57-47,66-42c40,24,278,208,278,214
		c0,16-79,108-122,143c-111,90-203,129-348,147C7694,4731,7640,4731,7555,4719z"/>
	<path d="M10908,4719c-174-24-318-96-443-223c-128-130-207-290-236-476c-17-113-6-365,20-464c67-244,220-433,424-526
		c96-43,171-60,297-67c193-10,340,35,478,146l62,51v-52c0-174-98-282-290-324c-156-33-388-7-563,62c-49,20-90,34-91,32
		c-1-1-32-79-68-171l-67-169l72-33c167-77,352-116,552-116c551-1,848,234,895,710c7,68,10,374,8,846l-3,740l-207,3l-208,2v-85v-86
		l-60,50c-68,57-179,114-262,135C11142,4723,10991,4731,10908,4719z M11272,4292c155-74,248-241,248-445c0-146-32-248-107-343
		c-79-99-180-145-318-145c-100,0-166,20-237,71c-123,88-187,228-188,412c0,157,42,277,129,367c87,89,175,122,311,118
		C11192,4324,11214,4319,11272,4292z"/>
	<path d="M12915,4723c-346-43-601-268-692-611c-23-86-26-116-26-267c-1-188,10-257,63-394c42-108,98-192,189-281
		c130-128,290-195,492-207c205-11,374,44,502,165l37,36v-74c0-154-84-253-255-301c-33-9-100-14-200-14c-166,1-273,21-408,76
		c-38,16-71,29-72,29c-2,0-34-77-71-171c-57-142-66-172-54-180c28-17,195-78,270-98c120-32,206-42,353-42c311,0,519,71,680,232
		c64,64,85,93,121,170c83,178,79,128,83,1067l4,832l-208-2l-208-3l-3-83l-3-83l-51,46c-59,53-151,106-223,128
		C13144,4722,13007,4735,12915,4723z M13253,4287c177-87,271-296,238-529c-31-221-176-379-366-397c-244-24-426,120-472,374
		c-35,192,20,381,142,494c84,77,155,101,291,98C13169,4324,13185,4321,13253,4287z"/>
	<path d="M14887,4719c-144-16-266-66-386-158c-399-302-443-999-86-1356c149-149,349-231,590-242c248-11,464,59,625,204
		c61,55,130,139,130,158c0,11-269,225-283,225c-3,0-31-26-64-57c-100-98-210-143-348-143c-206,0-374,118-420,295c-8,32-15,65-15,72
		c0,10,115,13,590,13h590v118c0,200-44,388-121,520c-52,87-190,221-274,264C15260,4712,15080,4742,14887,4719z M15155,4326
		c99-45,165-120,191-219c26-97,62-88-343-85l-358,3l4,30c10,90,85,205,167,256C14907,4367,15052,4374,15155,4326z"/>
	<path d="M16485,4719c-147-21-304-101-380-193c-78-96-117-243-97-372c35-237,153-345,523-484c218-82,283-140,259-228
		c-13-49-66-98-117-109c-140-29-309,23-420,129c-22,22-46,39-51,37c-17-6-252-219-252-228c0-19,63-93,119-140c71-58,198-123,291-148
		c91-25,338-24,430,1c110,30,208,84,281,156c110,108,155,226,146,385c-14,251-139,377-499,504c-211,75-265,108-288,177
		c-22,66,41,144,128,158c91,14,200-26,287-106c38-35,59-47,68-41c6,5,72,53,145,107c72,54,132,101,132,104c0,17-89,116-138,154
		c-112,87-193,121-332,138C16624,4731,16571,4731,16485,4719z"/>
	<path d="M8517,4683c-11-10-8-964,3-1093c24-288,120-475,290-564c113-60,266-81,401-56c90,17,207,81,273,149c31,34,59,61,62,61
		c2,0,4-40,4-90v-90h215h215v845v845h-220h-220v-502c0-303-4-529-11-568c-23-144-112-234-251-255c-94-14-208,35-262,114
		c-54,77-56,100-56,679v532h-218C8622,4690,8520,4687,8517,4683z"/>
</g>
</svg>
